<?xml version="1.0" encoding="utf-8"?>
<!-- Generator: Adobe Illustrator 22.1.0, SVG Export Plug-In . SVG Version: 6.00 Build 0)  -->
<svg version="1.1" id="Layer_1" xmlns="http://www.w3.org/2000/svg" xmlns:xlink="http://www.w3.org/1999/xlink" x="0px" y="0px"
	 viewBox="0 0 905 815" style="enable-background:new 0 0 905 815;" xml:space="preserve">
<style type="text/css">
	.st0{fill:#3E65D7;}
	.st1{fill:#FFFFFF;}
</style>
<path class="st0" d="M620.4,16.5H284.6c-35.8,0-68.8,19.1-86.7,50.1l-168,290.8c-17.9,31-17.9,69.2,0,100.2l167.9,290.8
	c17.9,31,51,50.1,86.7,50.1h335.8c35.8,0,68.8-19.1,86.7-50.1l167.9-290.8c17.9-31,17.9-69.2,0-100.2L707.1,66.6
	C689.3,35.6,656.2,16.5,620.4,16.5z"/>
<path class="st1" d="M628,548.5H524.2H415.8l206.5-265.2c7.4-9.6,8.8-22.3,3.4-33.1s-16.2-17.6-28.3-17.6h-73.2H380.8H277
	c-9.1,0-16.5,7.4-16.5,16.5s7.4,16.5,16.5,16.5h103.8h109.7L284,530.7c-7.4,9.6-8.8,22.3-3.4,33.1c5.3,10.9,16.2,17.6,28.3,17.6H382
	h142.2H628c9.1,0,16.5-7.4,16.5-16.5S637.1,548.5,628,548.5z M532.3,265.5h62L374,548.5h-62L532.3,265.5z"/>
</svg>
