<?xml version="1.0" encoding="utf-8"?>
<!-- Generator: Adobe Illustrator 22.1.0, SVG Export Plug-In . SVG Version: 6.00 Build 0)  -->
<svg version="1.1" id="Layer_1" xmlns="http://www.w3.org/2000/svg" xmlns:xlink="http://www.w3.org/1999/xlink" x="0px" y="0px"
	 viewBox="0 0 72 72" style="enable-background:new 0 0 72 72;" xml:space="preserve">
<style type="text/css">
	.st0{fill:#FFFFFF;}
</style>
<g>
	<path class="st0" d="M28.2,37.9c-0.7-0.3-1.7-0.5-3-0.5h-7.3v7.8h7.2c1.3,0,2.3-0.2,3-0.5c1.3-0.6,2-1.9,2-3.7
		C30.1,39.5,29.4,38.4,28.2,37.9z"/>
	<path class="st0" d="M28.3,31.8c0.8-0.5,1.2-1.3,1.2-2.6c0-1.4-0.5-2.3-1.6-2.7c-0.9-0.3-2.1-0.5-3.5-0.5h-6.5v6.5h7.2
		C26.4,32.5,27.5,32.3,28.3,31.8z"/>
	<path class="st0" d="M64,0H8C3.6,0,0,3.6,0,8v56c0,4.4,3.6,8,8,8h56c4.4,0,8-3.6,8-8V8C72,3.6,68.4,0,64,0z M42.7,22.4h12.7V26
		H42.7V22.4z M35,46.1c-0.6,0.9-1.3,1.7-2.1,2.3c-0.9,0.7-2.1,1.2-3.3,1.5c-1.3,0.3-2.7,0.4-4.2,0.4H12V21h14.3
		c3.6,0.1,6.2,1.1,7.7,3.1c0.9,1.2,1.4,2.7,1.4,4.5c0,1.8-0.5,3.2-1.4,4.3c-0.5,0.6-1.3,1.2-2.3,1.7c1.5,0.5,2.7,1.4,3.4,2.6
		c0.8,1.2,1.2,2.6,1.2,4.3C36.3,43.2,35.9,44.7,35,46.1z M60,41H44c0.1,2.2,0.9,3.7,2.3,4.6c0.9,0.5,1.9,0.8,3.2,0.8
		c1.3,0,2.4-0.3,3.2-1c0.4-0.4,0.8-0.9,1.2-1.5h5.9c-0.2,1.3-0.9,2.6-2.1,3.9c-2,2.1-4.7,3.2-8.3,3.2c-2.9,0-5.5-0.9-7.7-2.7
		c-2.2-1.8-3.3-4.7-3.3-8.7c0-3.8,1-6.6,3-8.6c2-2,4.6-3,7.8-3c1.9,0,3.6,0.3,5.2,1c1.5,0.7,2.8,1.7,3.8,3.2
		c0.9,1.3,1.5,2.8,1.8,4.5C60,37.7,60,39.2,60,41z"/>
	<path class="st0" d="M49.1,32.7c-1.5,0-2.6,0.4-3.4,1.2c-0.8,0.8-1.3,1.9-1.5,3.3H54c-0.1-1.5-0.6-2.6-1.5-3.4
		C51.6,33.1,50.5,32.7,49.1,32.7z"/>
</g>
</svg>
