<?xml version="1.0" encoding="utf-8"?>
<!-- Generator: Adobe Illustrator 22.1.0, SVG Export Plug-In . SVG Version: 6.00 Build 0)  -->
<svg version="1.1" id="Layer_1" xmlns="http://www.w3.org/2000/svg" xmlns:xlink="http://www.w3.org/1999/xlink" x="0px" y="0px"
	 viewBox="0 0 72 72" style="enable-background:new 0 0 72 72;" xml:space="preserve">
<style type="text/css">
	.st0{fill:#F8F8FF;}
</style>
<title>Codepen</title>
<desc>Created with Sketch.</desc>
<g id="Page-1">
	<g id="Social-Icons---Rounded-Black" transform="translate(-152.000000, -155.000000)">
		<g id="Codepen" transform="translate(152.000000, 155.000000)">
			<path id="Rounded" d="M8,72h56c4.4,0,8-3.6,8-8V8c0-4.4-3.6-8-8-8H8C3.6,0,0,3.6,0,8v56C0,68.4,3.6,72,8,72z"/>
		</g>
	</g>
</g>
<g id="icon-86-document-list" sketch:type="MSArtboardGroup">
	<path class="st0" d="M42.9,9.5v11.8c0,1.1,0.9,2,1.9,2h9.8L42.9,9.5L42.9,9.5z"/>
	<polygon class="st0" points="25.2,31.1 25.2,33.1 27.2,33.1 27.2,31.1 25.2,31.1 	"/>
	<polygon class="st0" points="25.2,40.9 25.2,42.9 27.2,42.9 27.2,40.9 25.2,40.9 	"/>
	<polygon class="st0" points="25.2,50.7 25.2,52.7 27.2,52.7 27.2,50.7 25.2,50.7 	"/>
	<path class="st0" d="M44.9,25.2c-2.2,0-3.9-1.7-3.9-3.9V9.5H21.3c-2.2,0-3.9,1.8-3.9,3.9v45.2c0,2.2,1.8,3.9,3.9,3.9h29.5
		c2.2,0,3.9-1.8,3.9-3.9V25.2H44.9z M29.1,54.7h-5.9v-5.9h5.9V54.7z M29.1,44.8h-5.9v-5.9h5.9V44.8z M29.1,35h-5.9v-5.9h5.9V35z
		 M48.8,52.7H33.1v-2h15.7V52.7z M48.8,42.9H33.1v-2h15.7V42.9z M48.8,33.1H33.1v-2h15.7V33.1z"/>
</g>
</svg>
