<?xml version="1.0" encoding="utf-8"?>
<!-- Generator: Adobe Illustrator 22.1.0, SVG Export Plug-In . SVG Version: 6.00 Build 0)  -->
<svg version="1.1" id="Layer_1" xmlns="http://www.w3.org/2000/svg" xmlns:xlink="http://www.w3.org/1999/xlink" x="0px" y="0px"
	 viewBox="0 0 72 72" style="enable-background:new 0 0 72 72;" xml:space="preserve">
<style type="text/css">
	.st0{fill:#F8F8FF;}
</style>
<g>
	<path class="st0" d="M23.6,44.6h5.7v-5.7h-5.7V44.6z M25.5,40.8h1.9v1.9h-1.9V40.8z"/>
	<rect x="33.1" y="50.3" class="st0" width="15.2" height="1.9"/>
	<path class="st0" d="M23.6,54.1h5.7v-5.7h-5.7V54.1z M25.5,50.3h1.9v1.9h-1.9V50.3z"/>
	<path class="st0" d="M23.6,35h5.7v-5.7h-5.7V35z M25.5,31.2h1.9v1.9h-1.9V31.2z"/>
	<path class="st0" d="M64,0H8C3.6,0,0,3.6,0,8v56c0,4.4,3.6,8,8,8h56c4.4,0,8-3.6,8-8V8C72,3.6,68.4,0,64,0z M42.7,10.3l11.4,13.3
		h-9.5c-1,0-1.9-0.9-1.9-1.9V10.3z M54.1,57.9c0,2.1-1.7,3.8-3.8,3.8H21.7c-2.1,0-3.8-1.7-3.8-3.8V14.1c0-2.1,1.7-3.8,3.8-3.8h19
		v11.4c0,2.1,1.7,3.8,3.8,3.8h9.5V57.9z"/>
	<rect x="33.1" y="40.8" class="st0" width="15.2" height="1.9"/>
	<rect x="33.1" y="31.2" class="st0" width="15.2" height="1.9"/>
</g>
</svg>
