<?xml version="1.0" encoding="utf-8"?>
<!-- Generator: Adobe Illustrator 22.1.0, SVG Export Plug-In . SVG Version: 6.00 Build 0)  -->
<svg version="1.1" id="Layer_1" xmlns="http://www.w3.org/2000/svg" xmlns:xlink="http://www.w3.org/1999/xlink" x="0px" y="0px"
	 viewBox="0 0 72 72" style="enable-background:new 0 0 72 72;" xml:space="preserve">
<path d="M64,0H8C3.6,0,0,3.6,0,8v56c0,4.4,3.6,8,8,8h56c4.4,0,8-3.6,8-8V8C72,3.6,68.4,0,64,0z M43.6,60c-1.2,0.2-1.7-0.5-1.7-1.2
	c0-0.8,0-3.4,0-6.6c0-2.2-0.8-3.7-1.6-4.5c5.3-0.6,11-2.6,11-11.9c0-2.6-0.9-4.8-2.5-6.5c0.2-0.6,1.1-3.1-0.2-6.4c0,0-2-0.6-6.6,2.5
	c-1.9-0.5-4-0.8-6-0.8c-2,0-4.1,0.3-6,0.8c-4.6-3.1-6.6-2.5-6.6-2.5c-1.3,3.3-0.5,5.8-0.2,6.4c-1.5,1.7-2.5,3.8-2.5,6.5
	c0,9.2,5.6,11.3,10.9,11.9c-0.7,0.6-1.3,1.7-1.5,3.2c-1.4,0.6-4.8,1.7-7-2c0,0-1.3-2.3-3.7-2.5c0,0-2.3,0-0.2,1.5
	c0,0,1.6,0.7,2.7,3.5c0,0,1.4,4.7,8.1,3.2c0,2,0,3.5,0,4.1c0,0.6-0.4,1.4-1.6,1.2C18.9,56.8,12,47.7,12,37.1C12,23.8,22.7,13,36,13
	c13.3,0,24,10.8,24,24.1C60,47.7,53.1,56.8,43.6,60z" fill="#ffffff" opacity="1"/>
</svg>
