<?xml version="1.0" encoding="utf-8"?>
<!-- Generator: Adobe Illustrator 22.1.0, SVG Export Plug-In . SVG Version: 6.00 Build 0)  -->
<svg version="1.1" id="Layer_1" xmlns="http://www.w3.org/2000/svg" xmlns:xlink="http://www.w3.org/1999/xlink" x="0px" y="0px"
	 viewBox="0 0 72 72" style="enable-background:new 0 0 72 72;" xml:space="preserve">
<path d="M64,0H8C3.6,0,0,3.6,0,8v56c0,4.4,3.6,8,8,8h56c4.4,0,8-3.6,8-8V8C72,3.6,68.4,0,64,0z M23.7,58.5h-9.3v-30h9.3V58.5z
	 M19,24.6c-3,0-5.5-2.5-5.5-5.5c0-3.1,2.5-5.5,5.5-5.5s5.5,2.5,5.5,5.5C24.5,22.1,22,24.6,19,24.6z M58.5,58.5h-9.2V42.8
	c0-4.3-1.6-6.7-5.1-6.7c-3.7,0-5.7,2.5-5.7,6.7v15.7h-8.9v-30h8.9v4c0,0,2.7-5,9-5c6.4,0,10.9,3.9,10.9,11.9V58.5z" fill="#ffffff"/>
</svg>
