<?xml version="1.0" encoding="utf-8"?>
<!-- Generator: Adobe Illustrator 22.1.0, SVG Export Plug-In . SVG Version: 6.00 Build 0)  -->
<svg version="1.1" id="Layer_1" xmlns="http://www.w3.org/2000/svg" xmlns:xlink="http://www.w3.org/1999/xlink" x="0px" y="0px"
	 viewBox="0 0 104 109" style="enable-background:new 0 0 104 109;" xml:space="preserve">
<style type="text/css">
	.st0{fill:#F5B7B1;}
	.st1{fill:#F1948A;}
	.st2{fill:#EC7063;}
</style>
<path class="st0" d="M93.7,109H10.3C4.6,109,0,104.5,0,99s4.6-10,10.3-10h83.4c5.7,0,10.3,4.5,10.3,10S99.4,109,93.7,109z"/>
<path class="st1" d="M10,109c-2.5,0-4.9-0.9-6.9-2.7c-4-3.8-4.2-10.1-0.4-14.1l84-89c3.8-4,10.1-4.2,14.1-0.4
	c4,3.8,4.2,10.1,0.4,14.1l-84,89C15.3,107.9,12.7,109,10,109z"/>
<path class="st2" d="M94,20H64c-5.5,0-10-4.5-10-10S58.5,0,64,0h30c5.5,0,10,4.5,10,10S99.5,20,94,20z M11,20h-1C4.5,20,0,15.5,0,10
	S4.5,0,10,0h1c5.5,0,10,4.5,10,10S16.5,20,11,20z"/>
</svg>
