<?xml version="1.0" encoding="utf-8"?>
<!-- Generator: Adobe Illustrator 22.1.0, SVG Export Plug-In . SVG Version: 6.00 Build 0)  -->
<svg version="1.1" id="Layer_1" xmlns="http://www.w3.org/2000/svg" xmlns:xlink="http://www.w3.org/1999/xlink" x="0px" y="0px"
	 viewBox="0 0 795 795" style="enable-background:new 0 0 795 795;" xml:space="preserve">
<g>
	<g>
		<polygon points="482.3,257 263.5,538 314,538 532.7,257 		" fill="#f8f8ff"/>
	</g>
	<g>
		<path d="M741.8,198.8L741.8,198.8C670.7,75.8,539.5,0,397.5,0h0c-142,0-273.2,75.8-344.2,198.8l0,0c-71,123-71,274.5,0,397.5l0,0
			c71,123,202.2,198.8,344.2,198.8h0c142,0,273.2-75.8,344.2-198.8l0,0C812.8,473.3,812.8,321.7,741.8,198.8z M568.5,573h-94.8
			H322.5h-94.8c-6.7,0-12.8-3.8-15.7-9.8c-2.9-6-2.2-13.2,1.9-18.4l224-287.8H321.3h-94.8c-9.7,0-17.5-7.8-17.5-17.5
			s7.8-17.5,17.5-17.5h94.8h152.5h94.8c6.7,0,12.8,3.8,15.7,9.8c2.9,6,2.2,13.2-1.9,18.4L358.3,538h115.4h94.8
			c9.7,0,17.5,7.8,17.5,17.5S578.2,573,568.5,573z" fill="#f8f8ff"/>
	</g>
</g>
</svg>
