<?xml version="1.0" encoding="utf-8"?>
<!-- Generator: Adobe Illustrator 22.1.0, SVG Export Plug-In . SVG Version: 6.00 Build 0)  -->
<svg version="1.1" id="Layer_1" xmlns="http://www.w3.org/2000/svg" xmlns:xlink="http://www.w3.org/1999/xlink" x="0px" y="0px"
	 viewBox="0 0 796 796" style="enable-background:new 0 0 796 796;" xml:space="preserve">
<style type="text/css">
	.st0{fill:#FFFFFF;}
</style>
<g>
	<g>
		<polygon points="259.9,540.5 481.8,255.5 537.3,255.5 315.4,540.5 		"/>
		<path class="st0" d="M536.3,256L315.2,540H261l221.1-284H536.3 M538.3,255h-56.8L258.9,541h56.8L538.3,255L538.3,255z"/>
	</g>
	<g>
		<path d="M398,795c-69.6,0-138.2-18.4-198.5-53.2C139.2,707,89,656.8,54.2,596.5C19.4,536.2,1,467.6,1,398s18.4-138.2,53.2-198.5
			S139.2,89,199.5,54.2C259.8,19.4,328.4,1,398,1s138.2,18.4,198.5,53.2s110.5,85,145.3,145.3C776.6,259.8,795,328.4,795,398
			s-18.4,138.2-53.2,198.5c-34.8,60.3-85,110.5-145.3,145.3C536.2,776.6,467.6,795,398,795z M216,546.5c-3.6,4.6-4.3,11-1.7,16.3
			s8,8.7,13.9,8.7H569c8.5,0,15.5-7,15.5-15.5s-7-15.5-15.5-15.5H354.7l226.5-291c3.6-4.6,4.3-11,1.7-16.3c-2.6-5.3-8-8.7-13.9-8.7
			H227c-8.5,0-15.5,7-15.5,15.5s7,15.5,15.5,15.5h215.5L216,546.5z"/>
		<path class="st0" d="M398,1.5c69.5,0,138.1,18.4,198.3,53.1c60.2,34.8,110.4,84.9,145.1,145.1c34.8,60.2,53.1,128.7,53.1,198.3
			c0,69.5-18.4,138.1-53.1,198.3c-34.8,60.2-84.9,110.4-145.1,145.1c-60.2,34.8-128.7,53.1-198.3,53.1
			c-69.5,0-138.1-18.4-198.3-53.1c-60.2-34.8-110.4-84.9-145.1-145.1C19.9,536.1,1.5,467.5,1.5,398c0-69.5,18.4-138.1,53.1-198.3
			c34.8-60.2,84.9-110.4,145.1-145.1C259.9,19.9,328.5,1.5,398,1.5 M227,256h94.8h119.7L215.6,546.2c-3.7,4.8-4.4,11.4-1.7,16.9
			c2.7,5.5,8.3,9,14.4,9H323h151.2H569c8.8,0,16-7.2,16-16s-7.2-16-16-16h-94.8H355.7l225.9-290.2c3.7-4.8,4.4-11.4,1.7-16.9
			c-2.7-5.5-8.3-9-14.4-9h-94.8H321.8H227c-8.8,0-16,7.2-16,16S218.2,256,227,256 M398,0.5L398,0.5c-142,0-273.2,75.8-344.3,198.8
			l0,0c-71,123-71,274.5,0,397.5l0,0c71,123,202.2,198.8,344.2,198.8h0c142,0,273.2-75.8,344.2-198.8l0,0c71-123,71-274.5,0-397.5
			l0,0C671.2,76.3,540,0.5,398,0.5L398,0.5z M227,255c-8.3,0-15-6.7-15-15c0-8.3,6.7-15,15-15h94.8h152.5H569c5.7,0,11,3.3,13.5,8.4
			c2.5,5.1,1.9,11.3-1.6,15.8L353.7,541h120.5H569c8.3,0,15,6.7,15,15c0,8.3-6.7,15-15,15h-94.8H323h-94.8c-5.7,0-11-3.3-13.5-8.4
			c-2.5-5.1-1.9-11.3,1.6-15.8L443.6,255H321.8H227L227,255z"/>
	</g>
</g>
</svg>
