<?xml version="1.0" standalone="no"?>
<!DOCTYPE svg PUBLIC "-//W3C//DTD SVG 20010904//EN"
 "http://www.w3.org/TR/2001/REC-SVG-20010904/DTD/svg10.dtd">
<svg version="1.0" xmlns="http://www.w3.org/2000/svg"
 width="880.000000pt" height="880.000000pt" viewBox="0 0 880.000000 880.000000"
 preserveAspectRatio="xMidYMid meet">
<metadata>
Created by potrace 1.11, written by Peter Selinger 2001-2013
</metadata>
<g transform="translate(0.000000,880.000000) scale(0.100000,-0.100000)"
fill="#000000" stroke="none">
<path d="M969 8795 c-2 -2 -18 -5 -36 -8 -17 -3 -36 -8 -41 -11 -5 -3 -24 -8
-42 -11 -38 -7 -197 -81 -218 -101 -7 -8 -17 -14 -22 -14 -4 0 -46 -37 -91
-83 -79 -78 -169 -207 -169 -242 0 -8 -4 -15 -8 -15 -8 0 -47 -137 -58 -200
-16 -103 -3 -252 33 -365 87 -274 332 -486 628 -540 58 -11 215 -13 250 -4 17
4 44 10 60 12 65 10 233 82 285 124 58 46 122 103 147 133 64 74 136 202 158
283 2 4 3 8 5 10 5 6 19 76 26 127 14 97 7 214 -18 305 -6 22 -11 45 -13 50
-1 6 -10 28 -19 50 -10 22 -23 52 -29 68 -7 15 -15 27 -19 27 -5 0 -7 3 -6 8
4 12 -60 99 -115 156 -115 117 -275 206 -422 233 -28 5 -262 12 -266 8z"/>
<path d="M5009 8796 c-2 -2 -22 -6 -44 -9 -185 -24 -404 -161 -513 -322 -15
-22 -30 -42 -33 -45 -6 -5 -64 -127 -79 -165 -25 -64 -42 -161 -44 -255 -2
-62 14 -186 27 -206 3 -6 8 -22 11 -36 13 -74 104 -222 188 -307 59 -61 165
-141 185 -141 7 0 13 -4 13 -10 0 -5 6 -10 14 -10 8 0 22 -7 30 -16 9 -8 16
-13 16 -10 0 3 20 -3 45 -14 25 -11 46 -19 48 -19 1 0 9 -2 17 -5 8 -3 29 -7
45 -10 17 -2 30 -5 30 -6 0 -9 141 -13 507 -14 241 -1 438 -3 438 -6 0 -6 -77
-89 -355 -385 -11 -12 -39 -43 -62 -68 -24 -26 -43 -44 -43 -40 0 3 -10 -7
-22 -23 -12 -16 -50 -58 -84 -94 -64 -67 -81 -86 -249 -265 -55 -59 -120 -128
-145 -154 -45 -48 -101 -108 -285 -305 -55 -59 -127 -135 -160 -170 -33 -34
-91 -96 -130 -137 -146 -157 -292 -313 -335 -359 -25 -26 -97 -103 -160 -171
-63 -67 -139 -147 -167 -176 -29 -29 -53 -55 -53 -57 0 -2 -26 -30 -57 -63
-61 -63 -278 -293 -333 -353 -18 -19 -83 -89 -145 -155 -62 -66 -130 -138
-151 -160 -37 -41 -240 -257 -304 -325 -60 -63 -283 -301 -315 -334 -16 -18
-75 -81 -130 -140 -55 -59 -122 -131 -150 -160 -27 -29 -106 -113 -175 -186
-69 -73 -141 -150 -160 -170 -19 -21 -80 -86 -135 -145 -55 -59 -122 -131
-150 -160 -27 -28 -79 -83 -114 -121 -70 -75 -263 -281 -351 -374 -30 -31 -98
-104 -150 -160 -52 -56 -123 -131 -157 -167 -35 -36 -63 -66 -63 -68 0 -1 -31
-35 -70 -76 -38 -40 -70 -77 -70 -81 0 -4 -6 -8 -12 -8 -13 -1 -56 -54 -121
-149 -37 -55 -91 -174 -101 -221 -25 -124 -27 -154 -22 -245 7 -109 11 -142
19 -165 3 -8 11 -33 18 -55 7 -22 19 -50 27 -62 8 -13 11 -23 7 -23 -3 0 3
-13 14 -29 12 -16 21 -32 21 -35 0 -24 142 -183 209 -234 72 -54 222 -126 291
-139 14 -2 43 -8 65 -13 49 -12 6966 -8 7010 3 17 4 53 14 80 22 28 8 55 15
60 16 15 3 179 90 185 98 3 4 23 20 44 37 40 29 92 79 131 125 28 33 95 144
95 158 0 6 5 11 12 11 6 0 9 3 5 6 -3 3 3 25 13 48 37 86 53 191 46 299 -7
120 -10 144 -19 153 -4 4 -7 16 -7 26 0 58 -97 240 -171 320 -76 83 -70 77
-129 118 -19 14 -37 28 -40 31 -8 10 -106 58 -162 79 -133 50 -30 48 -2676 48
-1360 0 -2475 2 -2478 5 -3 2 31 42 75 88 135 143 171 183 171 191 0 4 7 8 15
8 8 0 15 3 15 8 0 4 26 35 58 69 31 33 102 109 157 168 55 59 125 133 155 165
30 32 100 106 155 165 55 59 125 133 155 165 46 49 184 196 305 326 121 129
269 286 313 333 30 31 87 92 127 136 41 44 100 107 132 141 32 33 108 114 168
178 61 65 133 142 160 171 28 29 95 101 150 160 55 59 123 131 150 160 74 78
175 186 310 330 66 70 136 145 155 165 82 87 271 289 310 330 46 50 185 198
270 288 30 32 111 118 180 192 69 73 136 145 150 160 68 72 263 280 300 320
23 25 99 105 169 179 69 74 133 142 141 152 9 9 72 77 142 151 195 207 198
210 198 221 0 6 3 8 6 5 3 -3 24 15 47 40 23 26 74 80 113 122 39 41 87 91
105 111 112 120 260 278 299 318 150 156 211 236 261 346 48 107 69 213 65
340 -2 61 -6 121 -9 135 -19 86 -32 123 -64 190 -73 151 -189 274 -343 362
-46 26 -142 64 -182 72 -13 3 -45 9 -73 15 -47 9 -2886 17 -2896 7z"/>
</g>
</svg>
